<mxfile host="app.diagrams.net" modified="2024-05-14T03:38:05.475Z" agent="Mozilla/5.0 (Windows NT 10.0; Win64; x64) AppleWebKit/537.36 (KHTML, like Gecko) Chrome/124.0.0.0 Safari/537.36 Edg/124.0.0.0" etag="3EIuXuZ644--vJLVcX4O" version="24.3.1" type="device">
  <diagram name="Page-1" id="e7e014a7-5840-1c2e-5031-d8a46d1fe8dd">
    <mxGraphModel dx="529" dy="284" grid="1" gridSize="10" guides="1" tooltips="1" connect="1" arrows="1" fold="1" page="1" pageScale="1" pageWidth="1169" pageHeight="826" background="none" math="0" shadow="0">
      <root>
        <mxCell id="0" />
        <mxCell id="1" parent="0" />
        <mxCell id="2" value="User" style="swimlane;whiteSpace=wrap;startSize=23;" parent="1" vertex="1">
          <mxGeometry x="170" y="20" width="360" height="760" as="geometry" />
        </mxCell>
        <mxCell id="sZZ4CNQNBIKJHzys1BZO-22" value="" style="rounded=0;whiteSpace=wrap;html=1;fillColor=none;dashed=1;" vertex="1" parent="2">
          <mxGeometry x="40" y="530" width="280" height="210" as="geometry" />
        </mxCell>
        <mxCell id="sZZ4CNQNBIKJHzys1BZO-21" value="" style="rounded=0;whiteSpace=wrap;html=1;fillColor=none;dashed=1;" vertex="1" parent="2">
          <mxGeometry x="40" y="74" width="280" height="416" as="geometry" />
        </mxCell>
        <mxCell id="5" value="" style="ellipse;shape=startState;fillColor=#000000;strokeColor=#ff0000;" parent="2" vertex="1">
          <mxGeometry x="165" y="34" width="30" height="30" as="geometry" />
        </mxCell>
        <mxCell id="6" value="" style="edgeStyle=elbowEdgeStyle;elbow=horizontal;verticalAlign=bottom;endArrow=open;endSize=8;strokeColor=#FF0000;endFill=1;rounded=0" parent="2" source="5" target="7" edge="1">
          <mxGeometry x="100" y="40" as="geometry">
            <mxPoint x="140" y="110" as="targetPoint" />
          </mxGeometry>
        </mxCell>
        <mxCell id="7" value="Moving Instructions" style="" parent="2" vertex="1">
          <mxGeometry x="125" y="94" width="110" height="50" as="geometry" />
        </mxCell>
        <mxCell id="8" value="Selection Screen" style="fillColor=#1BA1E2;strokeColor=#6c8ebf;" parent="2" vertex="1">
          <mxGeometry x="125" y="414" width="110" height="50" as="geometry" />
        </mxCell>
        <mxCell id="9" value="" style="endArrow=open;strokeColor=#FF0000;endFill=1;rounded=0" parent="2" source="sZZ4CNQNBIKJHzys1BZO-29" target="8" edge="1">
          <mxGeometry relative="1" as="geometry" />
        </mxCell>
        <mxCell id="11" value="" style="endArrow=open;strokeColor=#FF0000;endFill=1;rounded=0;entryX=0.5;entryY=0;entryDx=0;entryDy=0;" parent="2" source="10" target="YEo9oLoiO-BceTEiRfmx-44" edge="1">
          <mxGeometry relative="1" as="geometry">
            <mxPoint x="140" y="392" as="targetPoint" />
          </mxGeometry>
        </mxCell>
        <mxCell id="YEo9oLoiO-BceTEiRfmx-43" value="" style="endArrow=open;strokeColor=#FF0000;endFill=1;rounded=0" parent="2" source="8" target="10" edge="1">
          <mxGeometry relative="1" as="geometry">
            <mxPoint x="300" y="380" as="sourcePoint" />
            <mxPoint x="300" y="520" as="targetPoint" />
          </mxGeometry>
        </mxCell>
        <mxCell id="10" value="Ship BuildingÂ &#xa;Tutorial Pop-up" style="fillColor=#1BA1E2;strokeColor=#6c8ebf;" parent="2" vertex="1">
          <mxGeometry x="125" y="550" width="110" height="50" as="geometry" />
        </mxCell>
        <mxCell id="sZZ4CNQNBIKJHzys1BZO-24" style="edgeStyle=orthogonalEdgeStyle;rounded=0;orthogonalLoop=1;jettySize=auto;html=1;entryX=0.5;entryY=0;entryDx=0;entryDy=0;" edge="1" parent="2" source="YEo9oLoiO-BceTEiRfmx-44" target="sZZ4CNQNBIKJHzys1BZO-23">
          <mxGeometry relative="1" as="geometry" />
        </mxCell>
        <mxCell id="YEo9oLoiO-BceTEiRfmx-44" value="Ship Building" style="" parent="2" vertex="1">
          <mxGeometry x="125" y="630" width="110" height="50" as="geometry" />
        </mxCell>
        <mxCell id="sZZ4CNQNBIKJHzys1BZO-23" value="" style="ellipse;html=1;shape=endState;fillColor=strokeColor;" vertex="1" parent="2">
          <mxGeometry x="165" y="700" width="30" height="30" as="geometry" />
        </mxCell>
        <mxCell id="sZZ4CNQNBIKJHzys1BZO-25" value="Moving Practice" style="" vertex="1" parent="2">
          <mxGeometry x="125" y="174" width="110" height="50" as="geometry" />
        </mxCell>
        <mxCell id="sZZ4CNQNBIKJHzys1BZO-26" value="" style="endArrow=open;strokeColor=#FF0000;endFill=1;rounded=0" edge="1" parent="2" source="7" target="sZZ4CNQNBIKJHzys1BZO-25">
          <mxGeometry relative="1" as="geometry">
            <mxPoint x="340" y="300" as="sourcePoint" />
            <mxPoint x="340" y="470" as="targetPoint" />
          </mxGeometry>
        </mxCell>
        <mxCell id="sZZ4CNQNBIKJHzys1BZO-27" value="Interaction Instructions" style="" vertex="1" parent="2">
          <mxGeometry x="112.5" y="257" width="135" height="50" as="geometry" />
        </mxCell>
        <mxCell id="sZZ4CNQNBIKJHzys1BZO-28" value="" style="endArrow=open;strokeColor=#FF0000;endFill=1;rounded=0" edge="1" parent="2" source="sZZ4CNQNBIKJHzys1BZO-25" target="sZZ4CNQNBIKJHzys1BZO-27">
          <mxGeometry relative="1" as="geometry">
            <mxPoint x="350" y="240" as="sourcePoint" />
            <mxPoint x="350" y="450" as="targetPoint" />
          </mxGeometry>
        </mxCell>
        <mxCell id="sZZ4CNQNBIKJHzys1BZO-29" value="Interaction Practice" style="" vertex="1" parent="2">
          <mxGeometry x="125" y="337" width="110" height="50" as="geometry" />
        </mxCell>
        <mxCell id="sZZ4CNQNBIKJHzys1BZO-30" value="" style="endArrow=open;strokeColor=#FF0000;endFill=1;rounded=0" edge="1" parent="2" source="sZZ4CNQNBIKJHzys1BZO-27" target="sZZ4CNQNBIKJHzys1BZO-29">
          <mxGeometry relative="1" as="geometry">
            <mxPoint x="350" y="320" as="sourcePoint" />
            <mxPoint x="350" y="450" as="targetPoint" />
          </mxGeometry>
        </mxCell>
        <mxCell id="sZZ4CNQNBIKJHzys1BZO-31" value="Tutorial" style="text;html=1;align=center;verticalAlign=middle;whiteSpace=wrap;rounded=0;" vertex="1" parent="2">
          <mxGeometry x="30" y="47" width="60" height="30" as="geometry" />
        </mxCell>
        <mxCell id="sZZ4CNQNBIKJHzys1BZO-53" value="Ship Building Scene" style="text;html=1;align=center;verticalAlign=middle;whiteSpace=wrap;rounded=0;" vertex="1" parent="2">
          <mxGeometry x="30" y="500" width="130" height="30" as="geometry" />
        </mxCell>
      </root>
    </mxGraphModel>
  </diagram>
</mxfile>
